#N canvas -1792 131 1792 1035 10;
#X text 889 30 TouchOSC;
#X text 890 45 http://hexler.net/touchosc;
#X obj 404 132 sendOSC;
#X obj 32 74 dumpOSC 8000;
#X text 890 60 basic.pd v1.0;
#X obj 110 74 print osc;
#X text 557 99 Use osc address of control. OSC messages are constructed
like this: /pagenumber/controlname;
#X text 404 22 Sending values to the iPhone on port 9000 Replace 10.10.10.10
with the ip-address of the iPhone;
#X text 29 19 Receiving values on port 8000 from the iPhone. Send values
from the iPhone to see the osc adress of the control for sending values
;
#X msg 404 65 connect 192.168.1.2 9000;
#X obj 486 152 hsl 128 15 0 127 0 0 empty empty empty -2 -8 0 10 #fcfcfc
#000000 #000000 0 1;
#X msg 441 99 send /1/fader1 1;
#X floatatom 440 231 5 0 0 0 - - -, f 5;
#X obj 440 209 unpack f f;
#X floatatom 497 231 5 0 0 0 - - -, f 5;
#X obj 1016 110 vsl 15 130 0 1 0 0 empty empty empty 0 -9 0 10 #fcfcfc
#000000 #000000 406 1;
#X msg 1136 21 \; pd dsp 0;
#X msg 1136 56 \; pd dsp 1;
#X obj 1327 60 notein;
#X obj 1327 245 pack f f f;
#X obj 1146 457 *~ 1;
#X obj 1298 462 *~ 1;
#X obj 1403 468 *~ 1;
#X obj 1521 475 *~ 1;
#X msg 1234 158 stop;
#X msg 1459 41 60 100;
#X msg 1466 79 60 0;
#X obj 192 472 vsl 15 128 0 1 0 0 empty empty empty 0 -9 0 10 #fcfcfc
#000000 #000000 12700 1;
#X obj 215 472 vsl 15 128 0 3000 0 0 empty empty empty 0 -9 0 10 #fcfcfc
#000000 #000000 10600 1;
#X obj 145 472 vsl 15 128 0 500 0 0 empty empty empty 0 -9 0 10 #fcfcfc
#000000 #000000 2700 1;
#X obj 168 472 vsl 15 128 0 500 0 0 empty empty empty 0 -9 0 10 #fcfcfc
#000000 #000000 12700 1;
#X text 166 451 A D S R;
#X obj 129 615 s attack;
#X obj 166 632 s decay;
#X obj 191 617 s sustain;
#X obj 217 634 s release;
#X obj 78 711 s funda0;
#X obj 78 781 s funda1;
#X obj 79 853 s funda2;
#X obj 77 925 s funda3;
#X obj 74 996 s funda4;
#X obj 78 688 hsl 128 15 0 1 0 0 empty empty empty -2 -8 0 10 #fcfcfc
#000000 #000000 12700 1;
#X obj 78 761 hsl 128 15 0 1 0 0 empty empty empty -2 -8 0 10 #00f8fc
#000000 #000000 7000 1;
#X obj 79 831 hsl 128 15 0 1 0 0 empty empty empty -2 -8 0 10 #f8fc00
#000000 #000000 11000 1;
#X obj 77 906 hsl 128 15 0 1 0 0 empty empty empty -2 -8 0 10 #00fc04
#000000 #000000 4900 1;
#X obj 74 975 hsl 128 15 0 1 0 0 empty empty empty -2 -8 0 10 #fc0400
#000000 #000000 1900 1;
#X obj 692 316 s shimfreq1;
#X obj 815 275 s shimstr1;
#X obj 693 463 s shimfreq2;
#X obj 814 421 s shimstr2;
#X obj 692 296 hsl 256 15 0 20 0 0 empty empty empty -2 -8 0 10 #00f8fc
#000000 #000000 0 1;
#X obj 815 253 hsl 128 15 0 10 0 0 empty empty empty -2 -8 0 10 #00f8fc
#000000 #000000 0 1;
#X obj 693 442 hsl 256 15 0 20 0 0 empty empty empty -2 -8 0 10 #f8fc00
#000000 #000000 0 1;
#X obj 817 400 hsl 128 15 0 10 0 0 empty empty empty -2 -8 0 10 #f8fc00
#000000 #000000 0 1;
#X obj 692 581 hsl 256 15 0 20 0 0 empty empty empty -2 -8 0 10 #00fc04
#000000 #000000 0 1;
#X obj 823 534 hsl 128 15 0 10 0 0 empty empty empty -2 -8 0 10 #00fc04
#000000 #000000 0 1;
#X obj 690 717 hsl 256 15 0 20 0 0 empty empty empty -2 -8 0 10 #fc0400
#000000 #000000 0 1;
#X obj 824 672 hsl 128 15 0 10 0 0 empty empty empty -2 -8 0 10 #ff2600
#000000 #000000 0 1;
#X obj 689 601 s shimfreq3;
#X obj 821 553 s shimstr3;
#X obj 690 739 s shimfreq4;
#X obj 821 693 s shimstr4;
#N canvas 318 71 1006 807 voicer 0;
#X obj 19 267 osc~;
#X obj 149 307 osc~;
#X obj 140 211 * 2;
#X obj 22 321 *~ 1;
#X obj 150 333 *~ 1;
#X obj 185 256 +~;
#X obj 141 112 *~;
#X obj 141 90 osc~;
#X floatatom 141 69 5 0 0 0 - - -, f 5;
#X floatatom 194 142 5 0 0 0 - - -, f 5;
#X obj 288 307 osc~;
#X obj 289 333 *~ 1;
#X obj 324 256 +~;
#X obj 280 112 *~;
#X obj 280 90 osc~;
#X floatatom 280 69 5 0 0 0 - - -, f 5;
#X floatatom 333 142 5 0 0 0 - - -, f 5;
#X obj 279 211 * 3;
#X obj 442 307 osc~;
#X obj 443 333 *~ 1;
#X obj 478 256 +~;
#X obj 434 112 *~;
#X obj 434 90 osc~;
#X floatatom 434 69 5 0 0 0 - - -, f 5;
#X floatatom 487 142 5 0 0 0 - - -, f 5;
#X obj 581 307 osc~;
#X obj 582 333 *~ 1;
#X obj 617 256 +~;
#X obj 573 112 *~;
#X obj 573 90 osc~;
#X floatatom 573 69 5 0 0 0 - - -, f 5;
#X floatatom 626 142 5 0 0 0 - - -, f 5;
#X obj 433 211 * 4;
#X obj 572 211 * 5;
#X floatatom 18 198 5 0 0 0 - - -, f 5;
#X obj 806 326 notein;
#X obj 806 349 mtof;
#X floatatom 806 372 5 0 0 0 - - -, f 5;
#X obj 806 394 osc~;
#X text 803 304 testing synth;
#N canvas 132 23 854 609 envelope 0;
#X obj 261 411 vline~;
#X obj 365 338 pack f f f f;
#X msg 261 370 1 \$2 \, \$4 \$3 \$2;
#X obj 488 427 pack f f;
#X obj 262 516 outlet~;
#X obj 492 291 inlet;
#X obj 271 217 inlet;
#X floatatom 271 240 5 0 0 0 - - -, f 5;
#X floatatom 340 255 5 0 0 0 - - -, f 5;
#X floatatom 391 273 5 0 0 0 - - -, f 5;
#X floatatom 445 280 5 0 0 0 - - -, f 5;
#X floatatom 548 345 5 0 0 0 - - -, f 5;
#X msg 428 375 0, f 6;
#X floatatom 705 446 5 0 0 0 - - -, f 5;
#X obj 478 398 select 0;
#X obj 371 486 unpack;
#X floatatom 371 509 5 0 0 0 - - -, f 5;
#X floatatom 426 513 5 0 0 0 - - -, f 5;
#X msg 369 454 0 \$2;
#X floatatom 496 326 5 0 0 0 - - -, f 5;
#X floatatom 496 348 5 0 0 0 - - -, f 5;
#X msg 496 370;
#X obj 333 195 r attack;
#X obj 388 224 r decay;
#X obj 448 200 r sustain;
#X obj 565 293 r release;
#X text 1095 613 inspired by https://www.youtube.com/watch?v=49a-IcuDlJE
Kay Engert;
#X connect 0 0 4 0;
#X connect 1 0 2 0;
#X connect 2 0 0 0;
#X connect 3 0 13 0;
#X connect 3 0 18 0;
#X connect 5 0 19 0;
#X connect 5 0 14 0;
#X connect 6 0 7 0;
#X connect 7 0 1 0;
#X connect 8 0 1 1;
#X connect 9 0 1 2;
#X connect 10 0 1 3;
#X connect 11 0 3 1;
#X connect 12 0 14 0;
#X connect 14 0 3 0;
#X connect 15 0 16 0;
#X connect 15 1 17 0;
#X connect 18 0 0 0;
#X connect 19 0 20 0;
#X connect 20 0 21 0;
#X connect 22 0 8 0;
#X connect 23 0 9 0;
#X connect 24 0 10 0;
#X connect 25 0 11 0;
#X restore 439 612 pd envelope;
#X obj 88 573 *~;
#X obj 87 653 outlet~;
#X obj 517 415 inlet;
#X floatatom 288 558 5 0 0 0 - - -, f 5;
#X obj 21 114 mtof;
#X obj 28 150 * 1;
#X obj 140 233 vline~;
#X obj 279 233 vline~;
#X obj 433 233 vline~;
#X obj 572 233 vline~;
#X obj 287 534 unpack;
#X floatatom 507 504 5 0 0 0 - - -, f 5;
#X obj 288 512 stripnote;
#X obj 512 464 unpack;
#X obj 141 9 r shimfreq1;
#X obj 569 15 r shimfreq4;
#X obj 430 6 r shimfreq3;
#X obj 275 11 r shimfreq2;
#X obj 192 101 r shimstr1;
#X obj 332 104 r shimstr2;
#X obj 482 109 r shimstr3;
#X obj 624 108 r shimstr4;
#X obj 216 302 r funda1;
#X obj 62 278 r funda0;
#X obj 348 313 r funda2;
#X obj 500 291 r funda3;
#X obj 632 296 r funda4;
#X obj 141 42 +;
#X obj 284 47 +;
#X obj 450 48 +;
#X obj 578 46 +;
#X obj 62 301 * 1;
#X obj 216 325 * 1;
#X obj 348 336 * 1;
#X obj 500 314 * 1;
#X obj 632 319 * 1;
#X connect 0 0 3 0;
#X connect 1 0 4 0;
#X connect 2 0 47 0;
#X connect 3 0 41 0;
#X connect 4 0 41 0;
#X connect 5 0 1 0;
#X connect 6 0 5 1;
#X connect 7 0 6 0;
#X connect 8 0 7 0;
#X connect 9 0 6 1;
#X connect 10 0 11 0;
#X connect 11 0 41 0;
#X connect 12 0 10 0;
#X connect 13 0 12 1;
#X connect 14 0 13 0;
#X connect 15 0 14 0;
#X connect 16 0 13 1;
#X connect 17 0 48 0;
#X connect 18 0 19 0;
#X connect 19 0 41 0;
#X connect 20 0 18 0;
#X connect 21 0 20 1;
#X connect 22 0 21 0;
#X connect 23 0 22 0;
#X connect 24 0 21 1;
#X connect 25 0 26 0;
#X connect 26 0 41 0;
#X connect 27 0 25 0;
#X connect 28 0 27 1;
#X connect 29 0 28 0;
#X connect 30 0 29 0;
#X connect 31 0 28 1;
#X connect 32 0 49 0;
#X connect 33 0 50 0;
#X connect 34 0 0 0;
#X connect 35 0 36 0;
#X connect 36 0 37 0;
#X connect 37 0 38 0;
#X connect 40 0 41 1;
#X connect 41 0 42 0;
#X connect 43 0 53 0;
#X connect 43 0 54 0;
#X connect 44 0 40 0;
#X connect 44 0 45 0;
#X connect 45 0 46 0;
#X connect 46 0 34 0;
#X connect 46 0 2 0;
#X connect 46 0 17 0;
#X connect 46 0 32 0;
#X connect 46 0 33 0;
#X connect 47 0 5 0;
#X connect 48 0 12 0;
#X connect 49 0 20 0;
#X connect 50 0 27 0;
#X connect 51 0 44 0;
#X connect 52 0 40 1;
#X connect 53 0 51 0;
#X connect 54 1 52 0;
#X connect 55 0 68 0;
#X connect 56 0 71 0;
#X connect 57 0 70 0;
#X connect 58 0 69 0;
#X connect 59 0 9 0;
#X connect 60 0 16 0;
#X connect 61 0 24 0;
#X connect 62 0 31 0;
#X connect 63 0 73 0;
#X connect 64 0 72 0;
#X connect 65 0 74 0;
#X connect 66 0 75 0;
#X connect 67 0 76 0;
#X connect 68 0 8 0;
#X connect 69 0 15 0;
#X connect 70 0 23 0;
#X connect 71 0 30 0;
#X connect 72 0 3 1;
#X connect 73 0 4 1;
#X connect 74 0 11 1;
#X connect 75 0 19 1;
#X connect 76 0 26 1;
#X restore 1192 367 pd voicer;
#N canvas 15 31 1006 807 voicer 0;
#X obj 19 267 osc~;
#X obj 149 307 osc~;
#X obj 140 211 * 2;
#X obj 22 321 *~ 1;
#X obj 150 333 *~ 1;
#X obj 185 256 +~;
#X obj 141 112 *~;
#X obj 141 90 osc~;
#X floatatom 141 69 5 0 0 0 - - -, f 5;
#X floatatom 194 142 5 0 0 0 - - -, f 5;
#X obj 288 307 osc~;
#X obj 289 333 *~ 1;
#X obj 324 256 +~;
#X obj 280 112 *~;
#X obj 280 90 osc~;
#X floatatom 280 69 5 0 0 0 - - -, f 5;
#X floatatom 333 142 5 0 0 0 - - -, f 5;
#X obj 279 211 * 3;
#X obj 442 307 osc~;
#X obj 443 333 *~ 1;
#X obj 478 256 +~;
#X obj 434 112 *~;
#X obj 434 90 osc~;
#X floatatom 434 69 5 0 0 0 - - -, f 5;
#X floatatom 487 142 5 0 0 0 - - -, f 5;
#X obj 581 307 osc~;
#X obj 582 333 *~ 1;
#X obj 617 256 +~;
#X obj 573 112 *~;
#X obj 573 90 osc~;
#X floatatom 573 69 5 0 0 0 - - -, f 5;
#X floatatom 626 142 5 0 0 0 - - -, f 5;
#X obj 433 211 * 4;
#X obj 572 211 * 5;
#X floatatom 18 198 5 0 0 0 - - -, f 5;
#X obj 806 326 notein;
#X obj 806 349 mtof;
#X floatatom 806 372 5 0 0 0 - - -, f 5;
#X obj 806 394 osc~;
#X text 803 304 testing synth;
#N canvas 408 96 998 588 envelope 0;
#X obj 261 411 vline~;
#X obj 365 338 pack f f f f;
#X msg 261 370 1 \$2 \, \$4 \$3 \$2;
#X obj 488 427 pack f f;
#X obj 262 516 outlet~;
#X obj 492 291 inlet;
#X obj 271 217 inlet;
#X floatatom 271 240 5 0 0 0 - - -, f 5;
#X floatatom 340 255 5 0 0 0 - - -, f 5;
#X floatatom 391 273 5 0 0 0 - - -, f 5;
#X floatatom 445 280 5 0 0 0 - - -, f 5;
#X floatatom 548 345 5 0 0 0 - - -, f 5;
#X msg 428 375 0, f 6;
#X floatatom 705 446 5 0 0 0 - - -, f 5;
#X obj 478 398 select 0;
#X obj 371 486 unpack;
#X floatatom 371 509 5 0 0 0 - - -, f 5;
#X floatatom 426 513 5 0 0 0 - - -, f 5;
#X msg 369 454 0 \$2;
#X floatatom 496 326 5 0 0 0 - - -, f 5;
#X floatatom 496 348 5 0 0 0 - - -, f 5;
#X msg 496 370;
#X obj 333 195 r attack;
#X obj 388 224 r decay;
#X obj 448 200 r sustain;
#X obj 565 293 r release;
#X connect 0 0 4 0;
#X connect 1 0 2 0;
#X connect 2 0 0 0;
#X connect 3 0 13 0;
#X connect 3 0 18 0;
#X connect 5 0 19 0;
#X connect 5 0 14 0;
#X connect 6 0 7 0;
#X connect 7 0 1 0;
#X connect 8 0 1 1;
#X connect 9 0 1 2;
#X connect 10 0 1 3;
#X connect 11 0 3 1;
#X connect 12 0 14 0;
#X connect 14 0 3 0;
#X connect 15 0 16 0;
#X connect 15 1 17 0;
#X connect 18 0 0 0;
#X connect 19 0 20 0;
#X connect 20 0 21 0;
#X connect 22 0 8 0;
#X connect 23 0 9 0;
#X connect 24 0 10 0;
#X connect 25 0 11 0;
#X restore 439 612 pd envelope;
#X obj 88 573 *~;
#X obj 87 653 outlet~;
#X obj 291 466 inlet;
#X floatatom 288 558 5 0 0 0 - - -, f 5;
#X obj 21 114 mtof;
#X obj 28 150 * 1;
#X obj 140 233 vline~;
#X obj 279 233 vline~;
#X obj 433 233 vline~;
#X obj 572 233 vline~;
#X obj 287 534 unpack;
#X floatatom 507 504 5 0 0 0 - - -, f 5;
#X obj 288 512 stripnote;
#X obj 385 494 unpack;
#X obj 141 9 r shimfreq1;
#X obj 569 15 r shimfreq4;
#X obj 430 6 r shimfreq3;
#X obj 275 11 r shimfreq2;
#X obj 192 101 r shimstr1;
#X obj 332 104 r shimstr2;
#X obj 482 109 r shimstr3;
#X obj 624 108 r shimstr4;
#X obj 216 302 r funda1;
#X obj 62 278 r funda0;
#X obj 348 313 r funda2;
#X obj 500 291 r funda3;
#X obj 632 296 r funda4;
#X floatatom 670 70 5 0 0 0 - - -, f 5;
#X msg 739 70 bang;
#X obj 775 79 random 100;
#X obj 775 102 / 100;
#X obj 141 42 +;
#X obj 284 47 +;
#X obj 450 48 +;
#X obj 602 46 +;
#X obj 775 125 - 0.5;
#X obj 789 53 sel 1;
#X floatatom 800 33 5 0 0 0 - - -, f 5;
#X obj 800 10 r randomize;
#X obj 683 14 sel 0;
#X msg 683 37 0;
#X floatatom 781 500 5 0 0 0 - - -, f 5;
#X obj 779 476 r randomizeF;
#X floatatom 714 589 5 0 0 0 - - -, f 5;
#X obj 727 533 sel 0;
#X msg 727 556 0;
#X obj 778 556 random 10;
#X obj 838 614 *;
#X floatatom 727 644 5 0 0 0 - - -, f 5;
#X obj 873 570 r randAmoF;
#X obj 778 533 sel 1;
#X obj 62 301 * 1;
#X obj 216 325 * 1;
#X obj 348 336 * 1;
#X obj 500 314 * 1;
#X obj 632 319 * 1;
#X text 653 453 randomize amount of fundamental;
#X obj 578 480 + 1;
#X obj 727 666 / 20;
#X floatatom 578 503 5 0 0 0 - - -, f 5;
#X connect 0 0 3 0;
#X connect 1 0 4 0;
#X connect 2 0 47 0;
#X connect 3 0 41 0;
#X connect 4 0 41 0;
#X connect 5 0 1 0;
#X connect 6 0 5 1;
#X connect 7 0 6 0;
#X connect 8 0 7 0;
#X connect 9 0 6 1;
#X connect 10 0 11 0;
#X connect 11 0 41 0;
#X connect 12 0 10 0;
#X connect 13 0 12 1;
#X connect 14 0 13 0;
#X connect 15 0 14 0;
#X connect 16 0 13 1;
#X connect 17 0 48 0;
#X connect 18 0 19 0;
#X connect 19 0 41 0;
#X connect 20 0 18 0;
#X connect 21 0 20 1;
#X connect 22 0 21 0;
#X connect 23 0 22 0;
#X connect 24 0 21 1;
#X connect 25 0 26 0;
#X connect 26 0 41 0;
#X connect 27 0 25 0;
#X connect 28 0 27 1;
#X connect 29 0 28 0;
#X connect 30 0 29 0;
#X connect 31 0 28 1;
#X connect 32 0 49 0;
#X connect 33 0 50 0;
#X connect 34 0 0 0;
#X connect 35 0 36 0;
#X connect 36 0 37 0;
#X connect 37 0 38 0;
#X connect 40 0 41 1;
#X connect 41 0 42 0;
#X connect 43 0 53 0;
#X connect 43 0 54 0;
#X connect 44 0 40 0;
#X connect 44 0 45 0;
#X connect 45 0 46 0;
#X connect 46 0 34 0;
#X connect 46 0 2 0;
#X connect 46 0 17 0;
#X connect 46 0 32 0;
#X connect 46 0 33 0;
#X connect 47 0 5 0;
#X connect 48 0 12 0;
#X connect 49 0 20 0;
#X connect 50 0 27 0;
#X connect 51 0 44 0;
#X connect 52 0 40 1;
#X connect 53 0 51 0;
#X connect 54 1 52 0;
#X connect 55 0 72 0;
#X connect 56 0 75 0;
#X connect 57 0 74 0;
#X connect 58 0 73 0;
#X connect 59 0 9 0;
#X connect 60 0 16 0;
#X connect 61 0 24 0;
#X connect 62 0 31 0;
#X connect 63 0 93 0;
#X connect 64 0 92 0;
#X connect 65 0 94 0;
#X connect 66 0 95 0;
#X connect 67 0 96 0;
#X connect 68 0 72 1;
#X connect 68 0 73 1;
#X connect 68 0 74 1;
#X connect 68 0 75 1;
#X connect 69 0 70 0;
#X connect 70 0 71 0;
#X connect 71 0 76 0;
#X connect 72 0 8 0;
#X connect 73 0 15 0;
#X connect 74 0 23 0;
#X connect 75 0 30 0;
#X connect 76 0 68 0;
#X connect 77 0 70 0;
#X connect 79 0 77 0;
#X connect 79 0 78 0;
#X connect 79 0 80 0;
#X connect 80 0 81 0;
#X connect 81 0 68 0;
#X connect 82 0 85 0;
#X connect 82 0 91 0;
#X connect 83 0 82 0;
#X connect 84 0 89 0;
#X connect 85 0 86 0;
#X connect 86 0 84 0;
#X connect 87 0 88 0;
#X connect 88 0 89 0;
#X connect 89 0 99 0;
#X connect 90 0 88 1;
#X connect 91 0 87 0;
#X connect 92 0 3 1;
#X connect 93 0 4 1;
#X connect 94 0 11 1;
#X connect 95 0 19 1;
#X connect 96 0 26 1;
#X connect 98 0 96 1;
#X connect 98 0 95 1;
#X connect 98 0 94 1;
#X connect 98 0 93 1;
#X connect 98 0 92 1;
#X connect 98 0 100 0;
#X connect 99 0 98 0;
#X restore 1280 369 pd voicer;
#N canvas 15 31 1006 807 voicer 0;
#X obj 19 267 osc~;
#X obj 149 307 osc~;
#X obj 140 211 * 2;
#X obj 22 321 *~ 1;
#X obj 150 333 *~ 1;
#X obj 185 256 +~;
#X obj 141 112 *~;
#X obj 141 90 osc~;
#X floatatom 141 69 5 0 0 0 - - -, f 5;
#X floatatom 194 142 5 0 0 0 - - -, f 5;
#X obj 288 307 osc~;
#X obj 289 333 *~ 1;
#X obj 324 256 +~;
#X obj 280 112 *~;
#X obj 280 90 osc~;
#X floatatom 280 69 5 0 0 0 - - -, f 5;
#X floatatom 333 142 5 0 0 0 - - -, f 5;
#X obj 279 211 * 3;
#X obj 442 307 osc~;
#X obj 443 333 *~ 1;
#X obj 478 256 +~;
#X obj 434 112 *~;
#X obj 434 90 osc~;
#X floatatom 434 69 5 0 0 0 - - -, f 5;
#X floatatom 487 142 5 0 0 0 - - -, f 5;
#X obj 581 307 osc~;
#X obj 582 333 *~ 1;
#X obj 617 256 +~;
#X obj 573 112 *~;
#X obj 573 90 osc~;
#X floatatom 573 69 5 0 0 0 - - -, f 5;
#X floatatom 626 142 5 0 0 0 - - -, f 5;
#X obj 433 211 * 4;
#X obj 572 211 * 5;
#X floatatom 18 198 5 0 0 0 - - -, f 5;
#X obj 806 326 notein;
#X obj 806 349 mtof;
#X floatatom 806 372 5 0 0 0 - - -, f 5;
#X obj 806 394 osc~;
#X text 803 304 testing synth;
#N canvas 408 96 998 588 envelope 0;
#X obj 261 411 vline~;
#X obj 365 338 pack f f f f;
#X msg 261 370 1 \$2 \, \$4 \$3 \$2;
#X obj 488 427 pack f f;
#X obj 262 516 outlet~;
#X obj 492 291 inlet;
#X obj 271 217 inlet;
#X floatatom 271 240 5 0 0 0 - - -, f 5;
#X floatatom 340 255 5 0 0 0 - - -, f 5;
#X floatatom 391 273 5 0 0 0 - - -, f 5;
#X floatatom 445 280 5 0 0 0 - - -, f 5;
#X floatatom 548 345 5 0 0 0 - - -, f 5;
#X msg 428 375 0, f 6;
#X floatatom 705 446 5 0 0 0 - - -, f 5;
#X obj 478 398 select 0;
#X obj 371 486 unpack;
#X floatatom 371 509 5 0 0 0 - - -, f 5;
#X floatatom 426 513 5 0 0 0 - - -, f 5;
#X msg 369 454 0 \$2;
#X floatatom 496 326 5 0 0 0 - - -, f 5;
#X floatatom 496 348 5 0 0 0 - - -, f 5;
#X msg 496 370;
#X obj 333 195 r attack;
#X obj 388 224 r decay;
#X obj 448 200 r sustain;
#X obj 565 293 r release;
#X connect 0 0 4 0;
#X connect 1 0 2 0;
#X connect 2 0 0 0;
#X connect 3 0 13 0;
#X connect 3 0 18 0;
#X connect 5 0 19 0;
#X connect 5 0 14 0;
#X connect 6 0 7 0;
#X connect 7 0 1 0;
#X connect 8 0 1 1;
#X connect 9 0 1 2;
#X connect 10 0 1 3;
#X connect 11 0 3 1;
#X connect 12 0 14 0;
#X connect 14 0 3 0;
#X connect 15 0 16 0;
#X connect 15 1 17 0;
#X connect 18 0 0 0;
#X connect 19 0 20 0;
#X connect 20 0 21 0;
#X connect 22 0 8 0;
#X connect 23 0 9 0;
#X connect 24 0 10 0;
#X connect 25 0 11 0;
#X restore 439 612 pd envelope;
#X obj 88 573 *~;
#X obj 87 653 outlet~;
#X obj 291 466 inlet;
#X floatatom 288 558 5 0 0 0 - - -, f 5;
#X obj 21 114 mtof;
#X obj 28 150 * 1;
#X obj 140 233 vline~;
#X obj 279 233 vline~;
#X obj 433 233 vline~;
#X obj 572 233 vline~;
#X obj 287 534 unpack;
#X floatatom 507 504 5 0 0 0 - - -, f 5;
#X obj 288 512 stripnote;
#X obj 385 494 unpack;
#X obj 141 9 r shimfreq1;
#X obj 569 15 r shimfreq4;
#X obj 430 6 r shimfreq3;
#X obj 275 11 r shimfreq2;
#X obj 192 101 r shimstr1;
#X obj 332 104 r shimstr2;
#X obj 482 109 r shimstr3;
#X obj 624 108 r shimstr4;
#X obj 216 302 r funda1;
#X obj 62 278 r funda0;
#X obj 348 313 r funda2;
#X obj 500 291 r funda3;
#X obj 632 296 r funda4;
#X floatatom 670 70 5 0 0 0 - - -, f 5;
#X msg 739 70 bang;
#X obj 775 79 random 100;
#X obj 775 102 / 100;
#X obj 141 42 +;
#X obj 284 47 +;
#X obj 450 48 +;
#X obj 602 46 +;
#X obj 775 125 - 0.5;
#X obj 789 53 sel 1;
#X floatatom 800 33 5 0 0 0 - - -, f 5;
#X obj 800 10 r randomize;
#X obj 683 14 sel 0;
#X msg 683 37 0;
#X floatatom 781 500 5 0 0 0 - - -, f 5;
#X obj 779 476 r randomizeF;
#X floatatom 714 589 5 0 0 0 - - -, f 5;
#X obj 727 533 sel 0;
#X msg 727 556 0;
#X obj 778 556 random 10;
#X obj 838 614 *;
#X floatatom 727 644 5 0 0 0 - - -, f 5;
#X obj 873 570 r randAmoF;
#X obj 778 533 sel 1;
#X obj 62 301 * 1;
#X obj 216 325 * 1;
#X obj 348 336 * 1;
#X obj 500 314 * 1;
#X obj 632 319 * 1;
#X text 653 453 randomize amount of fundamental;
#X obj 578 480 + 1;
#X obj 727 666 / 20;
#X floatatom 578 503 5 0 0 0 - - -, f 5;
#X connect 0 0 3 0;
#X connect 1 0 4 0;
#X connect 2 0 47 0;
#X connect 3 0 41 0;
#X connect 4 0 41 0;
#X connect 5 0 1 0;
#X connect 6 0 5 1;
#X connect 7 0 6 0;
#X connect 8 0 7 0;
#X connect 9 0 6 1;
#X connect 10 0 11 0;
#X connect 11 0 41 0;
#X connect 12 0 10 0;
#X connect 13 0 12 1;
#X connect 14 0 13 0;
#X connect 15 0 14 0;
#X connect 16 0 13 1;
#X connect 17 0 48 0;
#X connect 18 0 19 0;
#X connect 19 0 41 0;
#X connect 20 0 18 0;
#X connect 21 0 20 1;
#X connect 22 0 21 0;
#X connect 23 0 22 0;
#X connect 24 0 21 1;
#X connect 25 0 26 0;
#X connect 26 0 41 0;
#X connect 27 0 25 0;
#X connect 28 0 27 1;
#X connect 29 0 28 0;
#X connect 30 0 29 0;
#X connect 31 0 28 1;
#X connect 32 0 49 0;
#X connect 33 0 50 0;
#X connect 34 0 0 0;
#X connect 35 0 36 0;
#X connect 36 0 37 0;
#X connect 37 0 38 0;
#X connect 40 0 41 1;
#X connect 41 0 42 0;
#X connect 43 0 53 0;
#X connect 43 0 54 0;
#X connect 44 0 40 0;
#X connect 44 0 45 0;
#X connect 45 0 46 0;
#X connect 46 0 34 0;
#X connect 46 0 2 0;
#X connect 46 0 17 0;
#X connect 46 0 32 0;
#X connect 46 0 33 0;
#X connect 47 0 5 0;
#X connect 48 0 12 0;
#X connect 49 0 20 0;
#X connect 50 0 27 0;
#X connect 51 0 44 0;
#X connect 52 0 40 1;
#X connect 53 0 51 0;
#X connect 54 1 52 0;
#X connect 55 0 72 0;
#X connect 56 0 75 0;
#X connect 57 0 74 0;
#X connect 58 0 73 0;
#X connect 59 0 9 0;
#X connect 60 0 16 0;
#X connect 61 0 24 0;
#X connect 62 0 31 0;
#X connect 63 0 93 0;
#X connect 64 0 92 0;
#X connect 65 0 94 0;
#X connect 66 0 95 0;
#X connect 67 0 96 0;
#X connect 68 0 72 1;
#X connect 68 0 73 1;
#X connect 68 0 74 1;
#X connect 68 0 75 1;
#X connect 69 0 70 0;
#X connect 70 0 71 0;
#X connect 71 0 76 0;
#X connect 72 0 8 0;
#X connect 73 0 15 0;
#X connect 74 0 23 0;
#X connect 75 0 30 0;
#X connect 76 0 68 0;
#X connect 77 0 70 0;
#X connect 79 0 77 0;
#X connect 79 0 78 0;
#X connect 79 0 80 0;
#X connect 80 0 81 0;
#X connect 81 0 68 0;
#X connect 82 0 85 0;
#X connect 82 0 91 0;
#X connect 83 0 82 0;
#X connect 84 0 89 0;
#X connect 85 0 86 0;
#X connect 86 0 84 0;
#X connect 87 0 88 0;
#X connect 88 0 89 0;
#X connect 89 0 99 0;
#X connect 90 0 88 1;
#X connect 91 0 87 0;
#X connect 92 0 3 1;
#X connect 93 0 4 1;
#X connect 94 0 11 1;
#X connect 95 0 19 1;
#X connect 96 0 26 1;
#X connect 98 0 96 1;
#X connect 98 0 95 1;
#X connect 98 0 94 1;
#X connect 98 0 93 1;
#X connect 98 0 92 1;
#X connect 98 0 100 0;
#X connect 99 0 98 0;
#X restore 1444 372 pd voicer;
#N canvas 15 31 1006 807 voicer 0;
#X obj 19 267 osc~;
#X obj 149 307 osc~;
#X obj 140 211 * 2;
#X obj 22 321 *~ 1;
#X obj 150 333 *~ 1;
#X obj 185 256 +~;
#X obj 141 112 *~;
#X obj 141 90 osc~;
#X floatatom 141 69 5 0 0 0 - - -, f 5;
#X floatatom 194 142 5 0 0 0 - - -, f 5;
#X obj 288 307 osc~;
#X obj 289 333 *~ 1;
#X obj 324 256 +~;
#X obj 280 112 *~;
#X obj 280 90 osc~;
#X floatatom 280 69 5 0 0 0 - - -, f 5;
#X floatatom 333 142 5 0 0 0 - - -, f 5;
#X obj 279 211 * 3;
#X obj 442 307 osc~;
#X obj 443 333 *~ 1;
#X obj 478 256 +~;
#X obj 434 112 *~;
#X obj 434 90 osc~;
#X floatatom 434 69 5 0 0 0 - - -, f 5;
#X floatatom 487 142 5 0 0 0 - - -, f 5;
#X obj 581 307 osc~;
#X obj 582 333 *~ 1;
#X obj 617 256 +~;
#X obj 573 112 *~;
#X obj 573 90 osc~;
#X floatatom 573 69 5 0 0 0 - - -, f 5;
#X floatatom 626 142 5 0 0 0 - - -, f 5;
#X obj 433 211 * 4;
#X obj 572 211 * 5;
#X floatatom 18 198 5 0 0 0 - - -, f 5;
#X obj 806 326 notein;
#X obj 806 349 mtof;
#X floatatom 806 372 5 0 0 0 - - -, f 5;
#X obj 806 394 osc~;
#X text 803 304 testing synth;
#N canvas 408 96 998 588 envelope 0;
#X obj 261 411 vline~;
#X obj 365 338 pack f f f f;
#X msg 261 370 1 \$2 \, \$4 \$3 \$2;
#X obj 488 427 pack f f;
#X obj 262 516 outlet~;
#X obj 492 291 inlet;
#X obj 271 217 inlet;
#X floatatom 271 240 5 0 0 0 - - -, f 5;
#X floatatom 340 255 5 0 0 0 - - -, f 5;
#X floatatom 391 273 5 0 0 0 - - -, f 5;
#X floatatom 445 280 5 0 0 0 - - -, f 5;
#X floatatom 548 345 5 0 0 0 - - -, f 5;
#X msg 428 375 0, f 6;
#X floatatom 705 446 5 0 0 0 - - -, f 5;
#X obj 478 398 select 0;
#X obj 371 486 unpack;
#X floatatom 371 509 5 0 0 0 - - -, f 5;
#X floatatom 426 513 5 0 0 0 - - -, f 5;
#X msg 369 454 0 \$2;
#X floatatom 496 326 5 0 0 0 - - -, f 5;
#X floatatom 496 348 5 0 0 0 - - -, f 5;
#X msg 496 370;
#X obj 333 195 r attack;
#X obj 388 224 r decay;
#X obj 448 200 r sustain;
#X obj 565 293 r release;
#X connect 0 0 4 0;
#X connect 1 0 2 0;
#X connect 2 0 0 0;
#X connect 3 0 13 0;
#X connect 3 0 18 0;
#X connect 5 0 19 0;
#X connect 5 0 14 0;
#X connect 6 0 7 0;
#X connect 7 0 1 0;
#X connect 8 0 1 1;
#X connect 9 0 1 2;
#X connect 10 0 1 3;
#X connect 11 0 3 1;
#X connect 12 0 14 0;
#X connect 14 0 3 0;
#X connect 15 0 16 0;
#X connect 15 1 17 0;
#X connect 18 0 0 0;
#X connect 19 0 20 0;
#X connect 20 0 21 0;
#X connect 22 0 8 0;
#X connect 23 0 9 0;
#X connect 24 0 10 0;
#X connect 25 0 11 0;
#X restore 439 612 pd envelope;
#X obj 88 573 *~;
#X obj 87 653 outlet~;
#X obj 291 466 inlet;
#X floatatom 288 558 5 0 0 0 - - -, f 5;
#X obj 21 114 mtof;
#X obj 28 150 * 1;
#X obj 140 233 vline~;
#X obj 279 233 vline~;
#X obj 433 233 vline~;
#X obj 572 233 vline~;
#X obj 287 534 unpack;
#X floatatom 507 504 5 0 0 0 - - -, f 5;
#X obj 288 512 stripnote;
#X obj 385 494 unpack;
#X obj 141 9 r shimfreq1;
#X obj 569 15 r shimfreq4;
#X obj 430 6 r shimfreq3;
#X obj 275 11 r shimfreq2;
#X obj 192 101 r shimstr1;
#X obj 332 104 r shimstr2;
#X obj 482 109 r shimstr3;
#X obj 624 108 r shimstr4;
#X obj 216 302 r funda1;
#X obj 62 278 r funda0;
#X obj 348 313 r funda2;
#X obj 500 291 r funda3;
#X obj 632 296 r funda4;
#X floatatom 670 70 5 0 0 0 - - -, f 5;
#X msg 739 70 bang;
#X obj 775 79 random 100;
#X obj 775 102 / 100;
#X obj 141 42 +;
#X obj 284 47 +;
#X obj 450 48 +;
#X obj 602 46 +;
#X obj 775 125 - 0.5;
#X obj 789 53 sel 1;
#X floatatom 800 33 5 0 0 0 - - -, f 5;
#X obj 800 10 r randomize;
#X obj 683 14 sel 0;
#X msg 683 37 0;
#X floatatom 781 500 5 0 0 0 - - -, f 5;
#X obj 779 476 r randomizeF;
#X floatatom 714 589 5 0 0 0 - - -, f 5;
#X obj 727 533 sel 0;
#X msg 727 556 0;
#X obj 778 556 random 10;
#X obj 838 614 *;
#X floatatom 727 644 5 0 0 0 - - -, f 5;
#X obj 873 570 r randAmoF;
#X obj 778 533 sel 1;
#X obj 62 301 * 1;
#X obj 216 325 * 1;
#X obj 348 336 * 1;
#X obj 500 314 * 1;
#X obj 632 319 * 1;
#X text 653 453 randomize amount of fundamental;
#X obj 578 480 + 1;
#X obj 727 666 / 20;
#X floatatom 578 503 5 0 0 0 - - -, f 5;
#X connect 0 0 3 0;
#X connect 1 0 4 0;
#X connect 2 0 47 0;
#X connect 3 0 41 0;
#X connect 4 0 41 0;
#X connect 5 0 1 0;
#X connect 6 0 5 1;
#X connect 7 0 6 0;
#X connect 8 0 7 0;
#X connect 9 0 6 1;
#X connect 10 0 11 0;
#X connect 11 0 41 0;
#X connect 12 0 10 0;
#X connect 13 0 12 1;
#X connect 14 0 13 0;
#X connect 15 0 14 0;
#X connect 16 0 13 1;
#X connect 17 0 48 0;
#X connect 18 0 19 0;
#X connect 19 0 41 0;
#X connect 20 0 18 0;
#X connect 21 0 20 1;
#X connect 22 0 21 0;
#X connect 23 0 22 0;
#X connect 24 0 21 1;
#X connect 25 0 26 0;
#X connect 26 0 41 0;
#X connect 27 0 25 0;
#X connect 28 0 27 1;
#X connect 29 0 28 0;
#X connect 30 0 29 0;
#X connect 31 0 28 1;
#X connect 32 0 49 0;
#X connect 33 0 50 0;
#X connect 34 0 0 0;
#X connect 35 0 36 0;
#X connect 36 0 37 0;
#X connect 37 0 38 0;
#X connect 40 0 41 1;
#X connect 41 0 42 0;
#X connect 43 0 53 0;
#X connect 43 0 54 0;
#X connect 44 0 40 0;
#X connect 44 0 45 0;
#X connect 45 0 46 0;
#X connect 46 0 34 0;
#X connect 46 0 2 0;
#X connect 46 0 17 0;
#X connect 46 0 32 0;
#X connect 46 0 33 0;
#X connect 47 0 5 0;
#X connect 48 0 12 0;
#X connect 49 0 20 0;
#X connect 50 0 27 0;
#X connect 51 0 44 0;
#X connect 52 0 40 1;
#X connect 53 0 51 0;
#X connect 54 1 52 0;
#X connect 55 0 72 0;
#X connect 56 0 75 0;
#X connect 57 0 74 0;
#X connect 58 0 73 0;
#X connect 59 0 9 0;
#X connect 60 0 16 0;
#X connect 61 0 24 0;
#X connect 62 0 31 0;
#X connect 63 0 93 0;
#X connect 64 0 92 0;
#X connect 65 0 94 0;
#X connect 66 0 95 0;
#X connect 67 0 96 0;
#X connect 68 0 72 1;
#X connect 68 0 73 1;
#X connect 68 0 74 1;
#X connect 68 0 75 1;
#X connect 69 0 70 0;
#X connect 70 0 71 0;
#X connect 71 0 76 0;
#X connect 72 0 8 0;
#X connect 73 0 15 0;
#X connect 74 0 23 0;
#X connect 75 0 30 0;
#X connect 76 0 68 0;
#X connect 77 0 70 0;
#X connect 79 0 77 0;
#X connect 79 0 78 0;
#X connect 79 0 80 0;
#X connect 80 0 81 0;
#X connect 81 0 68 0;
#X connect 82 0 85 0;
#X connect 82 0 91 0;
#X connect 83 0 82 0;
#X connect 84 0 89 0;
#X connect 85 0 86 0;
#X connect 86 0 84 0;
#X connect 87 0 88 0;
#X connect 88 0 89 0;
#X connect 89 0 99 0;
#X connect 90 0 88 1;
#X connect 91 0 87 0;
#X connect 92 0 3 1;
#X connect 93 0 4 1;
#X connect 94 0 11 1;
#X connect 95 0 19 1;
#X connect 96 0 26 1;
#X connect 98 0 96 1;
#X connect 98 0 95 1;
#X connect 98 0 94 1;
#X connect 98 0 93 1;
#X connect 98 0 92 1;
#X connect 98 0 100 0;
#X connect 99 0 98 0;
#X restore 1360 371 pd voicer;
#X obj 692 248 / 127;
#X obj 692 397 / 127;
#X obj 692 271 * 20;
#X obj 692 420 * 20;
#X obj 691 537 / 127;
#X obj 691 560 * 20;
#X obj 689 673 / 127;
#X obj 689 696 * 20;
#X obj 759 218 / 127;
#X obj 759 240 * 10;
#X obj 769 368 / 127;
#X obj 769 390 * 10;
#X obj 772 510 / 127;
#X obj 772 532 * 10;
#X obj 774 647 / 127;
#X obj 774 669 * 10;
#X obj 21 682 / 127;
#X obj 21 661 ctlin 22;
#X obj 20 757 / 127;
#X obj 20 828 / 127;
#X obj 20 899 / 127;
#X obj 20 972 / 127;
#X obj 20 737 ctlin 23;
#X obj 20 952 ctlin 26;
#X obj 1321 275 route 1 2 3 4 5 6 7 8;
#X obj 1225 463 *~ 1;
#X obj 1351 465 *~ 1;
#X obj 1461 467 *~ 1;
#X obj 1582 465 *~ 1;
#N canvas 39 23 1006 807 voicer 0;
#X obj 19 267 osc~;
#X obj 149 307 osc~;
#X obj 140 211 * 2;
#X obj 22 321 *~ 1;
#X obj 150 333 *~ 1;
#X obj 185 256 +~;
#X obj 141 112 *~;
#X obj 141 90 osc~;
#X floatatom 141 69 5 0 0 0 - - -, f 5;
#X floatatom 194 142 5 0 0 0 - - -, f 5;
#X obj 288 307 osc~;
#X obj 289 333 *~ 1;
#X obj 324 256 +~;
#X obj 280 112 *~;
#X obj 280 90 osc~;
#X floatatom 280 69 5 0 0 0 - - -, f 5;
#X floatatom 333 142 5 0 0 0 - - -, f 5;
#X obj 279 211 * 3;
#X obj 442 307 osc~;
#X obj 443 333 *~ 1;
#X obj 478 256 +~;
#X obj 434 112 *~;
#X obj 434 90 osc~;
#X floatatom 434 69 5 0 0 0 - - -, f 5;
#X floatatom 487 142 5 0 0 0 - - -, f 5;
#X obj 581 307 osc~;
#X obj 582 333 *~ 1;
#X obj 617 256 +~;
#X obj 573 112 *~;
#X obj 573 90 osc~;
#X floatatom 573 69 5 0 0 0 - - -, f 5;
#X floatatom 626 142 5 0 0 0 - - -, f 5;
#X obj 433 211 * 4;
#X obj 572 211 * 5;
#X floatatom 18 198 5 0 0 0 - - -, f 5;
#X obj 806 326 notein;
#X obj 806 349 mtof;
#X floatatom 806 372 5 0 0 0 - - -, f 5;
#X obj 806 394 osc~;
#X text 803 304 testing synth;
#N canvas 479 23 591 588 envelope 0;
#X obj 265 483 vline~;
#X obj 365 338 pack f f f f;
#X obj 488 427 pack f f;
#X obj 262 516 outlet~;
#X obj 492 291 inlet;
#X obj 271 217 inlet;
#X floatatom 271 240 5 0 0 0 - - -, f 5;
#X floatatom 340 255 5 0 0 0 - - -, f 5;
#X floatatom 391 273 5 0 0 0 - - -, f 5;
#X floatatom 445 280 5 0 0 0 - - -, f 5;
#X floatatom 548 345 5 0 0 0 - - -, f 5;
#X msg 428 375 0, f 6;
#X floatatom 705 446 5 0 0 0 - - -, f 5;
#X obj 478 398 select 0;
#X msg 369 454 0 \$2;
#X floatatom 496 326 5 0 0 0 - - -, f 5;
#X floatatom 496 348 5 0 0 0 - - -, f 5;
#X msg 496 370;
#X obj 333 195 r attack;
#X obj 388 224 r decay;
#X obj 448 200 r sustain;
#X obj 565 293 r release;
#X msg 261 370 1 \$2 \, \$4 \$3 \$2;
#X connect 0 0 3 0;
#X connect 1 0 22 0;
#X connect 2 0 12 0;
#X connect 2 0 14 0;
#X connect 4 0 15 0;
#X connect 4 0 13 0;
#X connect 5 0 6 0;
#X connect 6 0 1 0;
#X connect 7 0 1 1;
#X connect 8 0 1 2;
#X connect 9 0 1 3;
#X connect 10 0 2 1;
#X connect 11 0 13 0;
#X connect 13 0 2 0;
#X connect 14 0 0 0;
#X connect 15 0 16 0;
#X connect 16 0 17 0;
#X connect 18 0 7 0;
#X connect 19 0 8 0;
#X connect 20 0 9 0;
#X connect 21 0 10 0;
#X connect 22 0 0 0;
#X restore 439 612 pd envelope;
#X obj 88 573 *~;
#X obj 87 653 outlet~;
#X obj 291 466 inlet;
#X floatatom 288 558 5 0 0 0 - - -, f 5;
#X obj 21 114 mtof;
#X obj 28 150 * 1;
#X obj 136 237 vline~;
#X obj 279 233 vline~;
#X obj 433 233 vline~;
#X obj 572 233 vline~;
#X obj 287 534 unpack;
#X floatatom 507 504 5 0 0 0 - - -, f 5;
#X obj 288 512 stripnote;
#X obj 385 494 unpack;
#X obj 141 9 r shimfreq1;
#X obj 569 15 r shimfreq4;
#X obj 430 6 r shimfreq3;
#X obj 275 11 r shimfreq2;
#X obj 192 101 r shimstr1;
#X obj 332 104 r shimstr2;
#X obj 482 109 r shimstr3;
#X obj 624 108 r shimstr4;
#X obj 216 302 r funda1;
#X obj 62 278 r funda0;
#X obj 348 313 r funda2;
#X obj 500 291 r funda3;
#X obj 632 296 r funda4;
#X obj 141 42 +;
#X obj 284 47 +;
#X obj 450 48 +;
#X obj 578 46 +;
#X obj 62 301 * 1;
#X obj 216 325 * 1;
#X obj 348 336 * 1;
#X obj 500 314 * 1;
#X obj 632 319 * 1;
#X floatatom 207 224 5 0 0 0 - - -, f 5;
#X connect 0 0 3 0;
#X connect 1 0 4 0;
#X connect 2 0 47 0;
#X connect 2 0 77 0;
#X connect 3 0 41 0;
#X connect 4 0 41 0;
#X connect 5 0 1 0;
#X connect 6 0 5 1;
#X connect 7 0 6 0;
#X connect 8 0 7 0;
#X connect 9 0 6 1;
#X connect 10 0 11 0;
#X connect 11 0 41 0;
#X connect 12 0 10 0;
#X connect 13 0 12 1;
#X connect 14 0 13 0;
#X connect 15 0 14 0;
#X connect 16 0 13 1;
#X connect 17 0 48 0;
#X connect 18 0 19 0;
#X connect 19 0 41 0;
#X connect 20 0 18 0;
#X connect 21 0 20 1;
#X connect 22 0 21 0;
#X connect 23 0 22 0;
#X connect 24 0 21 1;
#X connect 25 0 26 0;
#X connect 26 0 41 0;
#X connect 27 0 25 0;
#X connect 28 0 27 1;
#X connect 29 0 28 0;
#X connect 30 0 29 0;
#X connect 31 0 28 1;
#X connect 32 0 49 0;
#X connect 33 0 50 0;
#X connect 34 0 0 0;
#X connect 35 0 36 0;
#X connect 36 0 37 0;
#X connect 37 0 38 0;
#X connect 40 0 41 1;
#X connect 41 0 42 0;
#X connect 43 0 53 0;
#X connect 43 0 54 0;
#X connect 44 0 40 0;
#X connect 44 0 45 0;
#X connect 45 0 46 0;
#X connect 46 0 34 0;
#X connect 46 0 2 0;
#X connect 46 0 17 0;
#X connect 46 0 32 0;
#X connect 46 0 33 0;
#X connect 47 0 5 0;
#X connect 48 0 12 0;
#X connect 49 0 20 0;
#X connect 50 0 27 0;
#X connect 51 0 44 0;
#X connect 52 0 40 1;
#X connect 53 0 51 0;
#X connect 54 1 52 0;
#X connect 55 0 68 0;
#X connect 56 0 71 0;
#X connect 57 0 70 0;
#X connect 58 0 69 0;
#X connect 59 0 9 0;
#X connect 60 0 16 0;
#X connect 61 0 24 0;
#X connect 62 0 31 0;
#X connect 63 0 73 0;
#X connect 64 0 72 0;
#X connect 65 0 74 0;
#X connect 66 0 75 0;
#X connect 67 0 76 0;
#X connect 68 0 8 0;
#X connect 69 0 15 0;
#X connect 70 0 23 0;
#X connect 71 0 30 0;
#X connect 72 0 3 1;
#X connect 73 0 4 1;
#X connect 74 0 11 1;
#X connect 75 0 19 1;
#X connect 76 0 26 1;
#X restore 1270 339 pd voicer;
#N canvas 15 31 1006 807 voicer 0;
#X obj 19 267 osc~;
#X obj 149 307 osc~;
#X obj 140 211 * 2;
#X obj 22 321 *~ 1;
#X obj 150 333 *~ 1;
#X obj 185 256 +~;
#X obj 141 112 *~;
#X obj 141 90 osc~;
#X floatatom 141 69 5 0 0 0 - - -, f 5;
#X floatatom 194 142 5 0 0 0 - - -, f 5;
#X obj 288 307 osc~;
#X obj 289 333 *~ 1;
#X obj 324 256 +~;
#X obj 280 112 *~;
#X obj 280 90 osc~;
#X floatatom 280 69 5 0 0 0 - - -, f 5;
#X floatatom 333 142 5 0 0 0 - - -, f 5;
#X obj 279 211 * 3;
#X obj 442 307 osc~;
#X obj 443 333 *~ 1;
#X obj 478 256 +~;
#X obj 434 112 *~;
#X obj 434 90 osc~;
#X floatatom 434 69 5 0 0 0 - - -, f 5;
#X floatatom 487 142 5 0 0 0 - - -, f 5;
#X obj 581 307 osc~;
#X obj 582 333 *~ 1;
#X obj 617 256 +~;
#X obj 573 112 *~;
#X obj 573 90 osc~;
#X floatatom 573 69 5 0 0 0 - - -, f 5;
#X floatatom 626 142 5 0 0 0 - - -, f 5;
#X obj 433 211 * 4;
#X obj 572 211 * 5;
#X floatatom 18 198 5 0 0 0 - - -, f 5;
#X obj 806 326 notein;
#X obj 806 349 mtof;
#X floatatom 806 372 5 0 0 0 - - -, f 5;
#X obj 806 394 osc~;
#X text 803 304 testing synth;
#N canvas 408 96 998 588 envelope 0;
#X obj 261 411 vline~;
#X obj 365 338 pack f f f f;
#X msg 261 370 1 \$2 \, \$4 \$3 \$2;
#X obj 488 427 pack f f;
#X obj 262 516 outlet~;
#X obj 492 291 inlet;
#X obj 271 217 inlet;
#X floatatom 271 240 5 0 0 0 - - -, f 5;
#X floatatom 340 255 5 0 0 0 - - -, f 5;
#X floatatom 391 273 5 0 0 0 - - -, f 5;
#X floatatom 445 280 5 0 0 0 - - -, f 5;
#X floatatom 548 345 5 0 0 0 - - -, f 5;
#X msg 428 375 0, f 6;
#X floatatom 705 446 5 0 0 0 - - -, f 5;
#X obj 478 398 select 0;
#X obj 371 486 unpack;
#X floatatom 371 509 5 0 0 0 - - -, f 5;
#X floatatom 426 513 5 0 0 0 - - -, f 5;
#X msg 369 454 0 \$2;
#X floatatom 496 326 5 0 0 0 - - -, f 5;
#X floatatom 496 348 5 0 0 0 - - -, f 5;
#X msg 496 370;
#X obj 333 195 r attack;
#X obj 388 224 r decay;
#X obj 448 200 r sustain;
#X obj 565 293 r release;
#X connect 0 0 4 0;
#X connect 1 0 2 0;
#X connect 2 0 0 0;
#X connect 3 0 13 0;
#X connect 3 0 18 0;
#X connect 5 0 19 0;
#X connect 5 0 14 0;
#X connect 6 0 7 0;
#X connect 7 0 1 0;
#X connect 8 0 1 1;
#X connect 9 0 1 2;
#X connect 10 0 1 3;
#X connect 11 0 3 1;
#X connect 12 0 14 0;
#X connect 14 0 3 0;
#X connect 15 0 16 0;
#X connect 15 1 17 0;
#X connect 18 0 0 0;
#X connect 19 0 20 0;
#X connect 20 0 21 0;
#X connect 22 0 8 0;
#X connect 23 0 9 0;
#X connect 24 0 10 0;
#X connect 25 0 11 0;
#X restore 439 612 pd envelope;
#X obj 88 573 *~;
#X obj 87 653 outlet~;
#X obj 291 466 inlet;
#X floatatom 288 558 5 0 0 0 - - -, f 5;
#X obj 21 114 mtof;
#X obj 28 150 * 1;
#X obj 140 233 vline~;
#X obj 279 233 vline~;
#X obj 433 233 vline~;
#X obj 572 233 vline~;
#X obj 287 534 unpack;
#X floatatom 507 504 5 0 0 0 - - -, f 5;
#X obj 288 512 stripnote;
#X obj 385 494 unpack;
#X obj 141 9 r shimfreq1;
#X obj 569 15 r shimfreq4;
#X obj 430 6 r shimfreq3;
#X obj 275 11 r shimfreq2;
#X obj 192 101 r shimstr1;
#X obj 332 104 r shimstr2;
#X obj 482 109 r shimstr3;
#X obj 624 108 r shimstr4;
#X obj 216 302 r funda1;
#X obj 62 278 r funda0;
#X obj 348 313 r funda2;
#X obj 500 291 r funda3;
#X obj 632 296 r funda4;
#X floatatom 670 70 5 0 0 0 - - -, f 5;
#X msg 739 70 bang;
#X obj 775 79 random 100;
#X obj 775 102 / 100;
#X obj 141 42 +;
#X obj 284 47 +;
#X obj 450 48 +;
#X obj 602 46 +;
#X obj 775 125 - 0.5;
#X obj 789 53 sel 1;
#X floatatom 800 33 5 0 0 0 - - -, f 5;
#X obj 800 10 r randomize;
#X obj 683 14 sel 0;
#X msg 683 37 0;
#X floatatom 781 500 5 0 0 0 - - -, f 5;
#X obj 779 476 r randomizeF;
#X floatatom 714 589 5 0 0 0 - - -, f 5;
#X obj 727 533 sel 0;
#X msg 727 556 0;
#X obj 778 556 random 10;
#X obj 838 614 *;
#X floatatom 727 644 5 0 0 0 - - -, f 5;
#X obj 873 570 r randAmoF;
#X obj 778 533 sel 1;
#X obj 62 301 * 1;
#X obj 216 325 * 1;
#X obj 348 336 * 1;
#X obj 500 314 * 1;
#X obj 632 319 * 1;
#X text 653 453 randomize amount of fundamental;
#X obj 578 480 + 1;
#X obj 727 666 / 20;
#X floatatom 578 503 5 0 0 0 - - -, f 5;
#X connect 0 0 3 0;
#X connect 1 0 4 0;
#X connect 2 0 47 0;
#X connect 3 0 41 0;
#X connect 4 0 41 0;
#X connect 5 0 1 0;
#X connect 6 0 5 1;
#X connect 7 0 6 0;
#X connect 8 0 7 0;
#X connect 9 0 6 1;
#X connect 10 0 11 0;
#X connect 11 0 41 0;
#X connect 12 0 10 0;
#X connect 13 0 12 1;
#X connect 14 0 13 0;
#X connect 15 0 14 0;
#X connect 16 0 13 1;
#X connect 17 0 48 0;
#X connect 18 0 19 0;
#X connect 19 0 41 0;
#X connect 20 0 18 0;
#X connect 21 0 20 1;
#X connect 22 0 21 0;
#X connect 23 0 22 0;
#X connect 24 0 21 1;
#X connect 25 0 26 0;
#X connect 26 0 41 0;
#X connect 27 0 25 0;
#X connect 28 0 27 1;
#X connect 29 0 28 0;
#X connect 30 0 29 0;
#X connect 31 0 28 1;
#X connect 32 0 49 0;
#X connect 33 0 50 0;
#X connect 34 0 0 0;
#X connect 35 0 36 0;
#X connect 36 0 37 0;
#X connect 37 0 38 0;
#X connect 40 0 41 1;
#X connect 41 0 42 0;
#X connect 43 0 53 0;
#X connect 43 0 54 0;
#X connect 44 0 40 0;
#X connect 44 0 45 0;
#X connect 45 0 46 0;
#X connect 46 0 34 0;
#X connect 46 0 2 0;
#X connect 46 0 17 0;
#X connect 46 0 32 0;
#X connect 46 0 33 0;
#X connect 47 0 5 0;
#X connect 48 0 12 0;
#X connect 49 0 20 0;
#X connect 50 0 27 0;
#X connect 51 0 44 0;
#X connect 52 0 40 1;
#X connect 53 0 51 0;
#X connect 54 1 52 0;
#X connect 55 0 72 0;
#X connect 56 0 75 0;
#X connect 57 0 74 0;
#X connect 58 0 73 0;
#X connect 59 0 9 0;
#X connect 60 0 16 0;
#X connect 61 0 24 0;
#X connect 62 0 31 0;
#X connect 63 0 93 0;
#X connect 64 0 92 0;
#X connect 65 0 94 0;
#X connect 66 0 95 0;
#X connect 67 0 96 0;
#X connect 68 0 72 1;
#X connect 68 0 73 1;
#X connect 68 0 74 1;
#X connect 68 0 75 1;
#X connect 69 0 70 0;
#X connect 70 0 71 0;
#X connect 71 0 76 0;
#X connect 72 0 8 0;
#X connect 73 0 15 0;
#X connect 74 0 23 0;
#X connect 75 0 30 0;
#X connect 76 0 68 0;
#X connect 77 0 70 0;
#X connect 79 0 77 0;
#X connect 79 0 78 0;
#X connect 79 0 80 0;
#X connect 80 0 81 0;
#X connect 81 0 68 0;
#X connect 82 0 85 0;
#X connect 82 0 91 0;
#X connect 83 0 82 0;
#X connect 84 0 89 0;
#X connect 85 0 86 0;
#X connect 86 0 84 0;
#X connect 87 0 88 0;
#X connect 88 0 89 0;
#X connect 89 0 99 0;
#X connect 90 0 88 1;
#X connect 91 0 87 0;
#X connect 92 0 3 1;
#X connect 93 0 4 1;
#X connect 94 0 11 1;
#X connect 95 0 19 1;
#X connect 96 0 26 1;
#X connect 98 0 96 1;
#X connect 98 0 95 1;
#X connect 98 0 94 1;
#X connect 98 0 93 1;
#X connect 98 0 92 1;
#X connect 98 0 100 0;
#X connect 99 0 98 0;
#X restore 1350 344 pd voicer;
#N canvas 15 31 1006 807 voicer 0;
#X obj 19 267 osc~;
#X obj 149 307 osc~;
#X obj 140 211 * 2;
#X obj 22 321 *~ 1;
#X obj 150 333 *~ 1;
#X obj 185 256 +~;
#X obj 141 112 *~;
#X obj 141 90 osc~;
#X floatatom 141 69 5 0 0 0 - - -, f 5;
#X floatatom 194 142 5 0 0 0 - - -, f 5;
#X obj 288 307 osc~;
#X obj 289 333 *~ 1;
#X obj 324 256 +~;
#X obj 280 112 *~;
#X obj 280 90 osc~;
#X floatatom 280 69 5 0 0 0 - - -, f 5;
#X floatatom 333 142 5 0 0 0 - - -, f 5;
#X obj 279 211 * 3;
#X obj 442 307 osc~;
#X obj 443 333 *~ 1;
#X obj 478 256 +~;
#X obj 434 112 *~;
#X obj 434 90 osc~;
#X floatatom 434 69 5 0 0 0 - - -, f 5;
#X floatatom 487 142 5 0 0 0 - - -, f 5;
#X obj 581 307 osc~;
#X obj 582 333 *~ 1;
#X obj 617 256 +~;
#X obj 573 112 *~;
#X obj 573 90 osc~;
#X floatatom 573 69 5 0 0 0 - - -, f 5;
#X floatatom 626 142 5 0 0 0 - - -, f 5;
#X obj 433 211 * 4;
#X obj 572 211 * 5;
#X floatatom 18 198 5 0 0 0 - - -, f 5;
#X obj 806 326 notein;
#X obj 806 349 mtof;
#X floatatom 806 372 5 0 0 0 - - -, f 5;
#X obj 806 394 osc~;
#X text 803 304 testing synth;
#N canvas 408 96 998 588 envelope 0;
#X obj 261 411 vline~;
#X obj 365 338 pack f f f f;
#X msg 261 370 1 \$2 \, \$4 \$3 \$2;
#X obj 488 427 pack f f;
#X obj 262 516 outlet~;
#X obj 492 291 inlet;
#X obj 271 217 inlet;
#X floatatom 271 240 5 0 0 0 - - -, f 5;
#X floatatom 340 255 5 0 0 0 - - -, f 5;
#X floatatom 391 273 5 0 0 0 - - -, f 5;
#X floatatom 445 280 5 0 0 0 - - -, f 5;
#X floatatom 548 345 5 0 0 0 - - -, f 5;
#X msg 428 375 0, f 6;
#X floatatom 705 446 5 0 0 0 - - -, f 5;
#X obj 478 398 select 0;
#X obj 371 486 unpack;
#X floatatom 371 509 5 0 0 0 - - -, f 5;
#X floatatom 426 513 5 0 0 0 - - -, f 5;
#X msg 369 454 0 \$2;
#X floatatom 496 326 5 0 0 0 - - -, f 5;
#X floatatom 496 348 5 0 0 0 - - -, f 5;
#X msg 496 370;
#X obj 333 195 r attack;
#X obj 388 224 r decay;
#X obj 448 200 r sustain;
#X obj 565 293 r release;
#X connect 0 0 4 0;
#X connect 1 0 2 0;
#X connect 2 0 0 0;
#X connect 3 0 13 0;
#X connect 3 0 18 0;
#X connect 5 0 19 0;
#X connect 5 0 14 0;
#X connect 6 0 7 0;
#X connect 7 0 1 0;
#X connect 8 0 1 1;
#X connect 9 0 1 2;
#X connect 10 0 1 3;
#X connect 11 0 3 1;
#X connect 12 0 14 0;
#X connect 14 0 3 0;
#X connect 15 0 16 0;
#X connect 15 1 17 0;
#X connect 18 0 0 0;
#X connect 19 0 20 0;
#X connect 20 0 21 0;
#X connect 22 0 8 0;
#X connect 23 0 9 0;
#X connect 24 0 10 0;
#X connect 25 0 11 0;
#X restore 439 612 pd envelope;
#X obj 88 573 *~;
#X obj 87 653 outlet~;
#X obj 291 466 inlet;
#X floatatom 288 558 5 0 0 0 - - -, f 5;
#X obj 21 114 mtof;
#X obj 28 150 * 1;
#X obj 140 233 vline~;
#X obj 279 233 vline~;
#X obj 433 233 vline~;
#X obj 572 233 vline~;
#X obj 287 534 unpack;
#X floatatom 507 504 5 0 0 0 - - -, f 5;
#X obj 288 512 stripnote;
#X obj 385 494 unpack;
#X obj 141 9 r shimfreq1;
#X obj 569 15 r shimfreq4;
#X obj 430 6 r shimfreq3;
#X obj 275 11 r shimfreq2;
#X obj 192 101 r shimstr1;
#X obj 332 104 r shimstr2;
#X obj 482 109 r shimstr3;
#X obj 624 108 r shimstr4;
#X obj 216 302 r funda1;
#X obj 62 278 r funda0;
#X obj 348 313 r funda2;
#X obj 500 291 r funda3;
#X obj 632 296 r funda4;
#X floatatom 670 70 5 0 0 0 - - -, f 5;
#X msg 739 70 bang;
#X obj 775 79 random 100;
#X obj 775 102 / 100;
#X obj 141 42 +;
#X obj 284 47 +;
#X obj 450 48 +;
#X obj 602 46 +;
#X obj 775 125 - 0.5;
#X obj 789 53 sel 1;
#X floatatom 800 33 5 0 0 0 - - -, f 5;
#X obj 800 10 r randomize;
#X obj 683 14 sel 0;
#X msg 683 37 0;
#X floatatom 781 500 5 0 0 0 - - -, f 5;
#X obj 779 476 r randomizeF;
#X floatatom 714 589 5 0 0 0 - - -, f 5;
#X obj 727 533 sel 0;
#X msg 727 556 0;
#X obj 778 556 random 10;
#X obj 838 614 *;
#X floatatom 727 644 5 0 0 0 - - -, f 5;
#X obj 873 570 r randAmoF;
#X obj 778 533 sel 1;
#X obj 62 301 * 1;
#X obj 216 325 * 1;
#X obj 348 336 * 1;
#X obj 500 314 * 1;
#X obj 632 319 * 1;
#X text 653 453 randomize amount of fundamental;
#X obj 578 480 + 1;
#X obj 727 666 / 20;
#X floatatom 578 503 5 0 0 0 - - -, f 5;
#X connect 0 0 3 0;
#X connect 1 0 4 0;
#X connect 2 0 47 0;
#X connect 3 0 41 0;
#X connect 4 0 41 0;
#X connect 5 0 1 0;
#X connect 6 0 5 1;
#X connect 7 0 6 0;
#X connect 8 0 7 0;
#X connect 9 0 6 1;
#X connect 10 0 11 0;
#X connect 11 0 41 0;
#X connect 12 0 10 0;
#X connect 13 0 12 1;
#X connect 14 0 13 0;
#X connect 15 0 14 0;
#X connect 16 0 13 1;
#X connect 17 0 48 0;
#X connect 18 0 19 0;
#X connect 19 0 41 0;
#X connect 20 0 18 0;
#X connect 21 0 20 1;
#X connect 22 0 21 0;
#X connect 23 0 22 0;
#X connect 24 0 21 1;
#X connect 25 0 26 0;
#X connect 26 0 41 0;
#X connect 27 0 25 0;
#X connect 28 0 27 1;
#X connect 29 0 28 0;
#X connect 30 0 29 0;
#X connect 31 0 28 1;
#X connect 32 0 49 0;
#X connect 33 0 50 0;
#X connect 34 0 0 0;
#X connect 35 0 36 0;
#X connect 36 0 37 0;
#X connect 37 0 38 0;
#X connect 40 0 41 1;
#X connect 41 0 42 0;
#X connect 43 0 53 0;
#X connect 43 0 54 0;
#X connect 44 0 40 0;
#X connect 44 0 45 0;
#X connect 45 0 46 0;
#X connect 46 0 34 0;
#X connect 46 0 2 0;
#X connect 46 0 17 0;
#X connect 46 0 32 0;
#X connect 46 0 33 0;
#X connect 47 0 5 0;
#X connect 48 0 12 0;
#X connect 49 0 20 0;
#X connect 50 0 27 0;
#X connect 51 0 44 0;
#X connect 52 0 40 1;
#X connect 53 0 51 0;
#X connect 54 1 52 0;
#X connect 55 0 72 0;
#X connect 56 0 75 0;
#X connect 57 0 74 0;
#X connect 58 0 73 0;
#X connect 59 0 9 0;
#X connect 60 0 16 0;
#X connect 61 0 24 0;
#X connect 62 0 31 0;
#X connect 63 0 93 0;
#X connect 64 0 92 0;
#X connect 65 0 94 0;
#X connect 66 0 95 0;
#X connect 67 0 96 0;
#X connect 68 0 72 1;
#X connect 68 0 73 1;
#X connect 68 0 74 1;
#X connect 68 0 75 1;
#X connect 69 0 70 0;
#X connect 70 0 71 0;
#X connect 71 0 76 0;
#X connect 72 0 8 0;
#X connect 73 0 15 0;
#X connect 74 0 23 0;
#X connect 75 0 30 0;
#X connect 76 0 68 0;
#X connect 77 0 70 0;
#X connect 79 0 77 0;
#X connect 79 0 78 0;
#X connect 79 0 80 0;
#X connect 80 0 81 0;
#X connect 81 0 68 0;
#X connect 82 0 85 0;
#X connect 82 0 91 0;
#X connect 83 0 82 0;
#X connect 84 0 89 0;
#X connect 85 0 86 0;
#X connect 86 0 84 0;
#X connect 87 0 88 0;
#X connect 88 0 89 0;
#X connect 89 0 99 0;
#X connect 90 0 88 1;
#X connect 91 0 87 0;
#X connect 92 0 3 1;
#X connect 93 0 4 1;
#X connect 94 0 11 1;
#X connect 95 0 19 1;
#X connect 96 0 26 1;
#X connect 98 0 96 1;
#X connect 98 0 95 1;
#X connect 98 0 94 1;
#X connect 98 0 93 1;
#X connect 98 0 92 1;
#X connect 98 0 100 0;
#X connect 99 0 98 0;
#X restore 1511 346 pd voicer;
#N canvas 15 31 1006 807 voicer 0;
#X obj 19 267 osc~;
#X obj 149 307 osc~;
#X obj 140 211 * 2;
#X obj 22 321 *~ 1;
#X obj 150 333 *~ 1;
#X obj 185 256 +~;
#X obj 141 112 *~;
#X obj 141 90 osc~;
#X floatatom 141 69 5 0 0 0 - - -, f 5;
#X floatatom 194 142 5 0 0 0 - - -, f 5;
#X obj 288 307 osc~;
#X obj 289 333 *~ 1;
#X obj 324 256 +~;
#X obj 280 112 *~;
#X obj 280 90 osc~;
#X floatatom 280 69 5 0 0 0 - - -, f 5;
#X floatatom 333 142 5 0 0 0 - - -, f 5;
#X obj 279 211 * 3;
#X obj 442 307 osc~;
#X obj 443 333 *~ 1;
#X obj 478 256 +~;
#X obj 434 112 *~;
#X obj 434 90 osc~;
#X floatatom 434 69 5 0 0 0 - - -, f 5;
#X floatatom 487 142 5 0 0 0 - - -, f 5;
#X obj 581 307 osc~;
#X obj 582 333 *~ 1;
#X obj 617 256 +~;
#X obj 573 112 *~;
#X obj 573 90 osc~;
#X floatatom 573 69 5 0 0 0 - - -, f 5;
#X floatatom 626 142 5 0 0 0 - - -, f 5;
#X obj 433 211 * 4;
#X obj 572 211 * 5;
#X floatatom 18 198 5 0 0 0 - - -, f 5;
#X obj 806 326 notein;
#X obj 806 349 mtof;
#X floatatom 806 372 5 0 0 0 - - -, f 5;
#X obj 806 394 osc~;
#X text 803 304 testing synth;
#N canvas 408 96 998 588 envelope 0;
#X obj 261 411 vline~;
#X obj 365 338 pack f f f f;
#X msg 261 370 1 \$2 \, \$4 \$3 \$2;
#X obj 488 427 pack f f;
#X obj 262 516 outlet~;
#X obj 492 291 inlet;
#X obj 271 217 inlet;
#X floatatom 271 240 5 0 0 0 - - -, f 5;
#X floatatom 340 255 5 0 0 0 - - -, f 5;
#X floatatom 391 273 5 0 0 0 - - -, f 5;
#X floatatom 445 280 5 0 0 0 - - -, f 5;
#X floatatom 548 345 5 0 0 0 - - -, f 5;
#X msg 428 375 0, f 6;
#X floatatom 705 446 5 0 0 0 - - -, f 5;
#X obj 478 398 select 0;
#X obj 371 486 unpack;
#X floatatom 371 509 5 0 0 0 - - -, f 5;
#X floatatom 426 513 5 0 0 0 - - -, f 5;
#X msg 369 454 0 \$2;
#X floatatom 496 326 5 0 0 0 - - -, f 5;
#X floatatom 496 348 5 0 0 0 - - -, f 5;
#X msg 496 370;
#X obj 333 195 r attack;
#X obj 388 224 r decay;
#X obj 448 200 r sustain;
#X obj 565 293 r release;
#X connect 0 0 4 0;
#X connect 1 0 2 0;
#X connect 2 0 0 0;
#X connect 3 0 13 0;
#X connect 3 0 18 0;
#X connect 5 0 19 0;
#X connect 5 0 14 0;
#X connect 6 0 7 0;
#X connect 7 0 1 0;
#X connect 8 0 1 1;
#X connect 9 0 1 2;
#X connect 10 0 1 3;
#X connect 11 0 3 1;
#X connect 12 0 14 0;
#X connect 14 0 3 0;
#X connect 15 0 16 0;
#X connect 15 1 17 0;
#X connect 18 0 0 0;
#X connect 19 0 20 0;
#X connect 20 0 21 0;
#X connect 22 0 8 0;
#X connect 23 0 9 0;
#X connect 24 0 10 0;
#X connect 25 0 11 0;
#X restore 439 612 pd envelope;
#X obj 88 573 *~;
#X obj 87 653 outlet~;
#X obj 291 466 inlet;
#X floatatom 288 558 5 0 0 0 - - -, f 5;
#X obj 21 114 mtof;
#X obj 28 150 * 1;
#X obj 140 233 vline~;
#X obj 279 233 vline~;
#X obj 433 233 vline~;
#X obj 572 233 vline~;
#X obj 287 534 unpack;
#X floatatom 507 504 5 0 0 0 - - -, f 5;
#X obj 288 512 stripnote;
#X obj 385 494 unpack;
#X obj 141 9 r shimfreq1;
#X obj 569 15 r shimfreq4;
#X obj 430 6 r shimfreq3;
#X obj 275 11 r shimfreq2;
#X obj 192 101 r shimstr1;
#X obj 332 104 r shimstr2;
#X obj 482 109 r shimstr3;
#X obj 624 108 r shimstr4;
#X obj 216 302 r funda1;
#X obj 62 278 r funda0;
#X obj 348 313 r funda2;
#X obj 500 291 r funda3;
#X obj 632 296 r funda4;
#X floatatom 670 70 5 0 0 0 - - -, f 5;
#X msg 739 70 bang;
#X obj 775 79 random 100;
#X obj 775 102 / 100;
#X obj 141 42 +;
#X obj 284 47 +;
#X obj 450 48 +;
#X obj 602 46 +;
#X obj 775 125 - 0.5;
#X obj 789 53 sel 1;
#X floatatom 800 33 5 0 0 0 - - -, f 5;
#X obj 800 10 r randomize;
#X obj 683 14 sel 0;
#X msg 683 37 0;
#X floatatom 781 500 5 0 0 0 - - -, f 5;
#X obj 779 476 r randomizeF;
#X floatatom 714 589 5 0 0 0 - - -, f 5;
#X obj 727 533 sel 0;
#X msg 727 556 0;
#X obj 778 556 random 10;
#X obj 838 614 *;
#X floatatom 727 644 5 0 0 0 - - -, f 5;
#X obj 873 570 r randAmoF;
#X obj 778 533 sel 1;
#X obj 62 301 * 1;
#X obj 216 325 * 1;
#X obj 348 336 * 1;
#X obj 500 314 * 1;
#X obj 632 319 * 1;
#X text 653 453 randomize amount of fundamental;
#X obj 578 480 + 1;
#X obj 727 666 / 20;
#X floatatom 578 503 5 0 0 0 - - -, f 5;
#X connect 0 0 3 0;
#X connect 1 0 4 0;
#X connect 2 0 47 0;
#X connect 3 0 41 0;
#X connect 4 0 41 0;
#X connect 5 0 1 0;
#X connect 6 0 5 1;
#X connect 7 0 6 0;
#X connect 8 0 7 0;
#X connect 9 0 6 1;
#X connect 10 0 11 0;
#X connect 11 0 41 0;
#X connect 12 0 10 0;
#X connect 13 0 12 1;
#X connect 14 0 13 0;
#X connect 15 0 14 0;
#X connect 16 0 13 1;
#X connect 17 0 48 0;
#X connect 18 0 19 0;
#X connect 19 0 41 0;
#X connect 20 0 18 0;
#X connect 21 0 20 1;
#X connect 22 0 21 0;
#X connect 23 0 22 0;
#X connect 24 0 21 1;
#X connect 25 0 26 0;
#X connect 26 0 41 0;
#X connect 27 0 25 0;
#X connect 28 0 27 1;
#X connect 29 0 28 0;
#X connect 30 0 29 0;
#X connect 31 0 28 1;
#X connect 32 0 49 0;
#X connect 33 0 50 0;
#X connect 34 0 0 0;
#X connect 35 0 36 0;
#X connect 36 0 37 0;
#X connect 37 0 38 0;
#X connect 40 0 41 1;
#X connect 41 0 42 0;
#X connect 43 0 53 0;
#X connect 43 0 54 0;
#X connect 44 0 40 0;
#X connect 44 0 45 0;
#X connect 45 0 46 0;
#X connect 46 0 34 0;
#X connect 46 0 2 0;
#X connect 46 0 17 0;
#X connect 46 0 32 0;
#X connect 46 0 33 0;
#X connect 47 0 5 0;
#X connect 48 0 12 0;
#X connect 49 0 20 0;
#X connect 50 0 27 0;
#X connect 51 0 44 0;
#X connect 52 0 40 1;
#X connect 53 0 51 0;
#X connect 54 1 52 0;
#X connect 55 0 72 0;
#X connect 56 0 75 0;
#X connect 57 0 74 0;
#X connect 58 0 73 0;
#X connect 59 0 9 0;
#X connect 60 0 16 0;
#X connect 61 0 24 0;
#X connect 62 0 31 0;
#X connect 63 0 93 0;
#X connect 64 0 92 0;
#X connect 65 0 94 0;
#X connect 66 0 95 0;
#X connect 67 0 96 0;
#X connect 68 0 72 1;
#X connect 68 0 73 1;
#X connect 68 0 74 1;
#X connect 68 0 75 1;
#X connect 69 0 70 0;
#X connect 70 0 71 0;
#X connect 71 0 76 0;
#X connect 72 0 8 0;
#X connect 73 0 15 0;
#X connect 74 0 23 0;
#X connect 75 0 30 0;
#X connect 76 0 68 0;
#X connect 77 0 70 0;
#X connect 79 0 77 0;
#X connect 79 0 78 0;
#X connect 79 0 80 0;
#X connect 80 0 81 0;
#X connect 81 0 68 0;
#X connect 82 0 85 0;
#X connect 82 0 91 0;
#X connect 83 0 82 0;
#X connect 84 0 89 0;
#X connect 85 0 86 0;
#X connect 86 0 84 0;
#X connect 87 0 88 0;
#X connect 88 0 89 0;
#X connect 89 0 99 0;
#X connect 90 0 88 1;
#X connect 91 0 87 0;
#X connect 92 0 3 1;
#X connect 93 0 4 1;
#X connect 94 0 11 1;
#X connect 95 0 19 1;
#X connect 96 0 26 1;
#X connect 98 0 96 1;
#X connect 98 0 95 1;
#X connect 98 0 94 1;
#X connect 98 0 93 1;
#X connect 98 0 92 1;
#X connect 98 0 100 0;
#X connect 99 0 98 0;
#X restore 1429 349 pd voicer;
#X obj 1355 751 dac~;
#X obj 1016 249 s gain;
#X obj 1217 423 r gain;
#X obj 1323 420 r gain;
#X obj 1416 415 r gain;
#X obj 1489 405 r gain;
#X obj 980 709 *~ 1;
#X obj 1638 682 *~ 1;
#X obj 249 973 s spac;
#X obj 1031 705 *~ 1;
#X obj 1689 682 *~ 1;
#X obj 981 667 r live;
#X obj 1036 667 r kill;
#X obj 307 985 s spac2;
#X obj 1718 649 r live;
#X obj 1658 647 r kill;
#X obj 1366 675 *~ 0.5;
#N canvas 0 23 464 315 spacexplorer 0;
#X obj 37 19 r spac;
#X floatatom 37 42 5 0 0 0 - - -, f 5;
#X obj 72 103 - 1;
#X floatatom 23 124 5 0 0 0 - - -, f 5;
#X obj 23 146 * -1;
#X floatatom 81 168 5 0 0 0 - - -, f 5;
#X obj 37 64 s live;
#X obj 23 169 s kill;
#X floatatom 156 50 5 0 0 0 - - -, f 5;
#X obj 191 111 - 1;
#X floatatom 142 132 5 0 0 0 - - -, f 5;
#X obj 142 154 * -1;
#X floatatom 200 176 5 0 0 0 - - -, f 5;
#X obj 156 27 r spac2;
#X obj 156 72 s live2;
#X obj 142 177 s kill2;
#X floatatom 246 54 5 0 0 0 - - -, f 5;
#X obj 281 115 - 1;
#X floatatom 232 136 5 0 0 0 - - -, f 5;
#X obj 232 158 * -1;
#X floatatom 290 180 5 0 0 0 - - -, f 5;
#X obj 246 31 r spac3;
#X obj 232 181 s kill3;
#X obj 246 76 s live3;
#X connect 0 0 1 0;
#X connect 1 0 2 0;
#X connect 1 0 6 0;
#X connect 2 0 3 0;
#X connect 3 0 4 0;
#X connect 4 0 5 0;
#X connect 4 0 7 0;
#X connect 8 0 9 0;
#X connect 8 0 14 0;
#X connect 9 0 10 0;
#X connect 10 0 11 0;
#X connect 11 0 12 0;
#X connect 11 0 15 0;
#X connect 13 0 8 0;
#X connect 16 0 17 0;
#X connect 16 0 23 0;
#X connect 17 0 18 0;
#X connect 18 0 19 0;
#X connect 19 0 20 0;
#X connect 19 0 22 0;
#X connect 21 0 16 0;
#X restore 347 854 pd spacexplorer;
#X obj 382 992 s spac3;
#X obj 1096 666 *~ 1;
#X obj 1147 662 *~ 1;
#X obj 1097 624 r live2;
#X obj 1152 624 r kill2;
#X obj 1216 632 *~ 1;
#X obj 1267 628 *~ 1;
#X obj 1217 590 r live3;
#X obj 1272 590 r kill3;
#X obj 1533 654 *~ 1;
#X obj 1584 654 *~ 1;
#X obj 1553 619 r kill2;
#X obj 1613 621 r live2;
#X obj 1407 627 *~ 1;
#X obj 1458 627 *~ 1;
#X obj 1427 592 r kill3;
#X obj 1487 594 r live3;
#X obj 291 830 ctlin 29;
#X obj 291 853 / 127;
#X obj 253 946 + 0.5;
#X obj 254 924 * 0.5;
#X obj 309 930 * 0.25;
#X obj 311 955 + 0.5;
#X obj 383 926 * 0.1;
#X obj 383 949 + 0.5;
#X obj 133 366 ctlin 27;
#X obj 143 388 / 127;
#X obj 143 411 * 500;
#X obj 379 429 / 127;
#X obj 379 452 * 3000;
#X obj 295 881 hsl 128 15 0 1 0 0 empty empty empty -2 -8 0 10 #fcfcfc
#000000 #000000 0 1;
#X msg 1587 80 30 100;
#X msg 1592 108 30 0;
#X text 1452 14 midi befehl an;
#X text 1454 57 midi befehl aus;
#X text 1406 202 midi befehl an;
#X text 1276 42 midi keyboard in;
#X obj 1330 204 poly 8 1;
#X obj 1072 29 ctlin;
#X floatatom 1086 60 4 0 0 0 - - -, f 4;
#X obj 691 222 ctlin 20;
#X obj 758 197 ctlin 21;
#X obj 691 371 ctlin 71;
#X obj 768 347 ctlin 72;
#X obj 691 511 ctlin 25;
#X obj 771 489 ctlin 73;
#X obj 689 647 ctlin 74;
#X obj 773 626 ctlin 70;
#X obj 20 808 ctlin 61;
#X obj 20 879 ctlin 24;
#X obj 216 386 / 127;
#X obj 216 409 * 500;
#X obj 293 373 ctlin 27;
#X obj 303 395 / 127;
#X obj 303 418 * 500;
#X obj 78 737 route /1/Fundamentals/4;
#X obj 80 808 route /1/Fundamentals/3;
#X obj 78 879 route /1/Fundamentals/2;
#X obj 76 953 route /1/Fundamentals/1;
#X obj 440 188 route /1/xy1;
#X obj 78 661 route /1/Fundamentals/5;
#X obj 646 626 route /1/Shimmer/1;
#X obj 647 489 route /1/Shimmer/2;
#X obj 644 347 route /1/Shimmer/3;
#X obj 636 197 route /1/Shimmer/4;
#X obj 1016 85 route /1/master;
#X obj 1059 112 ctlin 63;
#X obj 1059 136 / 127;
#X obj 1059 158 * 1;
#X obj 91 345 route /1/attack;
#X obj 191 345 route /1/decay;
#X obj 286 349 route /1/sustain;
#X obj 364 387 route /1/release;
#X obj 206 364 ctlin 62;
#X obj 368 408 ctlin 95;
#X connect 3 0 5 0;
#X connect 3 0 172 0;
#X connect 3 0 173 0;
#X connect 3 0 174 0;
#X connect 3 0 175 0;
#X connect 3 0 176 0;
#X connect 3 0 177 0;
#X connect 3 0 178 0;
#X connect 3 0 179 0;
#X connect 3 0 180 0;
#X connect 3 0 181 0;
#X connect 3 0 182 0;
#X connect 3 0 186 0;
#X connect 3 0 187 0;
#X connect 3 0 188 0;
#X connect 3 0 189 0;
#X connect 9 0 2 0;
#X connect 10 0 11 0;
#X connect 11 0 2 0;
#X connect 13 0 12 0;
#X connect 13 1 14 0;
#X connect 15 0 100 0;
#X connect 18 0 154 0;
#X connect 18 1 154 1;
#X connect 19 0 90 0;
#X connect 20 0 105 0;
#X connect 20 0 108 0;
#X connect 21 0 122 0;
#X connect 21 0 123 0;
#X connect 22 0 115 0;
#X connect 23 0 126 0;
#X connect 23 0 127 0;
#X connect 24 0 154 0;
#X connect 25 0 154 0;
#X connect 26 0 154 0;
#X connect 27 0 34 0;
#X connect 28 0 35 0;
#X connect 29 0 32 0;
#X connect 30 0 33 0;
#X connect 41 0 36 0;
#X connect 42 0 37 0;
#X connect 43 0 38 0;
#X connect 44 0 39 0;
#X connect 45 0 40 0;
#X connect 50 0 46 0;
#X connect 51 0 47 0;
#X connect 52 0 48 0;
#X connect 53 0 49 0;
#X connect 54 0 58 0;
#X connect 55 0 59 0;
#X connect 56 0 60 0;
#X connect 57 0 61 0;
#X connect 62 0 20 0;
#X connect 63 0 21 0;
#X connect 64 0 23 0;
#X connect 65 0 22 0;
#X connect 66 0 68 0;
#X connect 67 0 69 0;
#X connect 68 0 50 0;
#X connect 69 0 52 0;
#X connect 70 0 71 0;
#X connect 71 0 54 0;
#X connect 72 0 73 0;
#X connect 73 0 56 0;
#X connect 74 0 75 0;
#X connect 75 0 51 0;
#X connect 76 0 77 0;
#X connect 77 0 53 0;
#X connect 78 0 79 0;
#X connect 79 0 55 0;
#X connect 80 0 81 0;
#X connect 81 0 57 0;
#X connect 82 0 41 0;
#X connect 83 0 82 0;
#X connect 84 0 42 0;
#X connect 85 0 43 0;
#X connect 86 0 44 0;
#X connect 87 0 45 0;
#X connect 88 0 84 0;
#X connect 89 0 87 0;
#X connect 90 0 62 0;
#X connect 90 1 95 0;
#X connect 90 2 63 0;
#X connect 90 3 96 0;
#X connect 90 4 65 0;
#X connect 90 5 98 0;
#X connect 90 6 64 0;
#X connect 90 7 97 0;
#X connect 91 0 118 0;
#X connect 91 0 119 0;
#X connect 92 0 115 0;
#X connect 93 0 130 0;
#X connect 93 0 131 0;
#X connect 94 0 109 0;
#X connect 94 0 106 0;
#X connect 95 0 91 0;
#X connect 96 0 92 0;
#X connect 97 0 94 0;
#X connect 98 0 93 0;
#X connect 101 0 20 1;
#X connect 101 0 91 1;
#X connect 102 0 21 1;
#X connect 102 0 92 1;
#X connect 103 0 22 1;
#X connect 103 0 93 1;
#X connect 104 0 23 1;
#X connect 104 0 94 1;
#X connect 105 0 99 0;
#X connect 106 0 99 0;
#X connect 108 0 99 1;
#X connect 109 0 99 1;
#X connect 110 0 105 1;
#X connect 111 0 108 1;
#X connect 113 0 109 1;
#X connect 114 0 106 1;
#X connect 115 0 99 0;
#X connect 115 0 99 1;
#X connect 118 0 99 0;
#X connect 119 0 99 1;
#X connect 120 0 118 1;
#X connect 121 0 119 1;
#X connect 122 0 99 0;
#X connect 123 0 99 1;
#X connect 124 0 122 1;
#X connect 125 0 123 1;
#X connect 126 0 99 0;
#X connect 127 0 99 1;
#X connect 128 0 126 1;
#X connect 129 0 127 1;
#X connect 130 0 99 0;
#X connect 131 0 99 1;
#X connect 132 0 130 1;
#X connect 133 0 131 1;
#X connect 134 0 135 0;
#X connect 135 0 147 0;
#X connect 136 0 107 0;
#X connect 137 0 136 0;
#X connect 138 0 139 0;
#X connect 139 0 112 0;
#X connect 140 0 141 0;
#X connect 141 0 117 0;
#X connect 142 0 143 0;
#X connect 143 0 144 0;
#X connect 144 0 29 0;
#X connect 145 0 146 0;
#X connect 146 0 28 0;
#X connect 147 0 137 0;
#X connect 147 0 138 0;
#X connect 147 0 140 0;
#X connect 148 0 154 0;
#X connect 149 0 154 0;
#X connect 154 0 19 0;
#X connect 154 1 19 1;
#X connect 154 2 19 2;
#X connect 155 1 156 0;
#X connect 157 0 66 0;
#X connect 158 0 74 0;
#X connect 159 0 67 0;
#X connect 160 0 76 0;
#X connect 161 0 70 0;
#X connect 162 0 78 0;
#X connect 163 0 72 0;
#X connect 164 0 80 0;
#X connect 165 0 85 0;
#X connect 166 0 86 0;
#X connect 167 0 168 0;
#X connect 168 0 30 0;
#X connect 169 0 170 0;
#X connect 170 0 171 0;
#X connect 171 0 27 0;
#X connect 172 0 42 0;
#X connect 173 0 43 0;
#X connect 174 0 44 0;
#X connect 175 0 45 0;
#X connect 176 0 13 0;
#X connect 177 0 41 0;
#X connect 178 0 73 0;
#X connect 179 0 71 0;
#X connect 180 0 69 0;
#X connect 181 0 68 0;
#X connect 182 0 15 0;
#X connect 183 0 184 0;
#X connect 184 0 185 0;
#X connect 185 0 15 0;
#X connect 186 0 144 0;
#X connect 187 0 168 0;
#X connect 188 0 171 0;
#X connect 189 0 146 0;
#X connect 190 0 167 0;
#X connect 191 0 145 0;
#X coords 0 0 1 1 85 60 0;
