#N canvas 613 228 450 436 12;
#X obj 114 310 dac~;
#X obj 124 267 *~;
#X obj 162 227 osc~ 440;
#X obj 124 201 vline~;
#X msg 176 172 0 66;
#X obj 107 138 bng 15 250 50 0 empty empty empty 17 7 0 10 -262144
-1 -1;
#X obj 139 138 bng 15 250 50 0 empty empty empty 17 7 0 10 -262144
-1 -1;
#X obj 107 105 sel 1;
#X obj 107 51 r onOff;
#X obj 107 77 tgl 15 0 empty empty empty 17 7 0 10 -262144 -1 -1 0
1;
#X msg 107 172 0.25 10;
#X connect 1 0 0 0;
#X connect 1 0 0 1;
#X connect 2 0 1 1;
#X connect 3 0 1 0;
#X connect 4 0 3 0;
#X connect 5 0 10 0;
#X connect 6 0 4 0;
#X connect 7 0 5 0;
#X connect 7 1 6 0;
#X connect 8 0 9 0;
#X connect 9 0 7 0;
#X connect 10 0 3 0;
